#N canvas 602 304 450 300 10;
#X obj 85 64 osc~ 440;
#X obj 104 141 dac~;
#X obj 164 63 osc~ 660;
#X obj 191 104 bng 15 250 50 0 empty empty empty 17 7 0 10 -262144
-1 -1;
#X obj 187 139 tgl 15 0 empty empty empty 17 7 0 10 -262144 -1 -1 0
1;
#X obj 245 95 r testbang;
#X obj 114 107 *~ 0;
#X connect 0 0 6 0;
#X connect 3 0 4 0;
#X connect 4 0 6 1;
#X connect 5 0 3 0;
#X connect 6 0 1 0;
#X connect 6 0 1 1;
